# xmcd
#
# Track frame offsets:
#	150
#	22444
#	46243
#	66670
#	99953
#	114467
#	134974
#	152499
#	171956
#	193084
#	221438
#	241422
#	285001
#
# Disc length: 4233 seconds
#
# Revision: 0
# Processed by: cddbd v1.5PL3 Copyright (c) Steve Scherf et al.
# Submitted via: dBpowerAMP V4.0
#
DISCID=c010870d
DTITLE=Big Bill and the Cooltones - rainy day blues
DYEAR=1900
DGENRE=Blues
TTITLE0=A Real Good Woman
TTITLE1=BMW Blues
TTITLE2=Pool Fool
TTITLE3=Rainy Day Blues
TTITLE4=What Went Wrong
TTITLE5=The Boulevard
TTITLE6=Fantasy Lady
TTITLE7=The Mood For Love
TTITLE8=Don't Shed a Tear
TTITLE9=The Money
TTITLE10=I Know You're Waiting
TTITLE11=Wah Groove
TTITLE12=DATA
EXTD=
EXTT0=
EXTT1=
EXTT2=
EXTT3=
EXTT4=
EXTT5=
EXTT6=
EXTT7=
EXTT8=
EXTT9=
EXTT10=
EXTT11=
EXTT12=
PLAYORDER=
